# xmcd
#
# Track frame offsets:
#	150
#	14452
#	28442
#	42844
#	58044
#	69323
#	82034
#	96464
#	109419
#	123819
#
# Disc length: 1805
#
# Revision: 1
# Processed by: cddbd v1.5.1PL0 Copyright (c) Steve Scherf et al.
# Submitted via: dBpowerAMP V4.0
# Normalized: r0:TDELIM( - )
#
DISCID=8a070b0a
DTITLE=Various Artist - Back in the Saddle
DYEAR=1900
DGENRE=
TTITLE0=Gene Autry - The Old Trail
TTITLE1=Tex Ritter - Cattle Call
TTITLE2=Ken Maynard - The Lone Star Trail
TTITLE3=Gene Autry - The Last Round Up
TTITLE4=Roy Rogers - Listen to the Rhythm of the Range
TTITLE5=Tex Ritter - Singin' in the Saddle
TTITLE6=Ken Maynard - Home on the Range
TTITLE7=Roy Rogers - Tumbling Tumbleweeds
TTITLE8=Tex Ritter - Oregon Trail
TTITLE9=Gene Autry - Back in the Saddle Again
EXTD=Old Time Country
EXTT0=
EXTT1=
EXTT2=
EXTT3=
EXTT4=
EXTT5=
EXTT6=
EXTT7=
EXTT8=
EXTT9=
PLAYORDER=
